<?xml version="1.0" encoding="iso-8859-1"?>
<!-- Generator: Adobe Illustrator 19.0.0, SVG Export Plug-In . SVG Version: 6.00 Build 0)  -->
<svg version="1.1" id="Capa_1" xmlns="http://www.w3.org/2000/svg" xmlns:xlink="http://www.w3.org/1999/xlink" x="0px" y="0px"
	 viewBox="0 0 480 480" style="enable-background:new 0 0 480 480;" xml:space="preserve">
<g>
	<g>
		<path d="M472,184.004h-32v-120c0.005-4.418-3.573-8.004-7.991-8.009c-2.342-0.003-4.567,1.021-6.089,2.801l-12.688,14.808
			C363.71,131.406,292.083,165.609,216,167.788v-15.784c0-4.418-3.582-8-8-8H64c-4.418,0-8,3.582-8,8v9.064l-49.136,7.016
			c-3.94,0.565-6.865,3.94-6.864,7.92v96c-0.001,3.98,2.924,7.355,6.864,7.92L56,286.94v9.064c0,4.418,3.582,8,8,8h8v112
			c0,4.418,3.582,8,8,8h48c4.418,0,8-3.582,8-8v-64h16c4.418,0,8-3.582,8-8v-40h48c4.418,0,8-3.582,8-8V280.22
			c76.082,2.177,147.706,36.381,197.224,94.184l12.696,14.816c2.872,3.358,7.921,3.752,11.279,0.881
			c1.782-1.524,2.805-3.752,2.801-6.097v-120h32c4.418,0,8-3.582,8-8v-64C480,187.586,476.418,184.004,472,184.004z M56,270.78
			l-40-5.712V182.94l40-5.712V270.78z M120,408.004H88v-104h32V408.004z M144,336.004h-8v-32h8V336.004z M200,288.004H72v-128h24v24
			h16v-24h16v24h16v-24h16v24h16v-24h24V288.004z M424,362.404c-52.518-60.435-127.965-96.086-208-98.288v-80.224
			c80.036-2.198,155.484-37.85,208-98.288V362.404z M464,248.004h-24v-48h24V248.004z"/>
	</g>
</g>
<g>
</g>
<g>
</g>
<g>
</g>
<g>
</g>
<g>
</g>
<g>
</g>
<g>
</g>
<g>
</g>
<g>
</g>
<g>
</g>
<g>
</g>
<g>
</g>
<g>
</g>
<g>
</g>
<g>
</g>
</svg>
