<svg height="512pt" viewBox="0 0 512 512" width="512pt" xmlns="http://www.w3.org/2000/svg"><path d="m196 302c-8.285156 0-15 6.714844-15 15v180c0 8.285156 6.714844 15 15 15h120c8.285156 0 15-6.714844 15-15v-180c0-8.285156-6.714844-15-15-15zm105 180h-90v-150h90zm0 0"/><path d="m497 422h-121c-8.285156 0-15 6.714844-15 15v60c0 8.285156 6.714844 15 15 15h121c8.285156 0 15-6.714844 15-15v-60c0-8.285156-6.714844-15-15-15zm-15 60h-91v-30h91zm0 0"/><path d="m15 512h121c8.285156 0 15-6.714844 15-15v-120c0-8.285156-6.714844-15-15-15h-121c-8.285156 0-15 6.714844-15 15v120c0 8.285156 6.714844 15 15 15zm15-120h91v90h-91zm0 0"/><path d="m360.714844 259.902344 27.976562-141.738282c18.652344-5.492187 32.308594-22.757812 32.308594-43.164062 0-24.8125-20.1875-45-45-45s-45 20.1875-45 45c0 16.175781 8.582031 30.382812 21.429688 38.3125l-34.574219 51.859375-40.332031-80.664063c13.976562-7.644531 23.476562-22.488281 23.476562-39.507812 0-24.8125-20.1875-45-45-45s-45 20.1875-45 45c0 17.019531 9.5 31.863281 23.476562 39.507812l-40.332031 80.664063-34.574219-51.859375c12.847657-7.929688 21.429688-22.136719 21.429688-38.3125 0-24.8125-20.1875-45-45-45s-45 20.1875-45 45c0 20.40625 13.65625 37.671875 32.308594 43.164062l27.976562 141.738282c1.386719 7.03125 7.550782 12.097656 14.714844 12.097656h180c7.164062 0 13.328125-5.066406 14.714844-12.097656zm15.285156-199.902344c8.269531 0 15 6.730469 15 15s-6.730469 15-15 15-15-6.730469-15-15 6.730469-15 15-15zm-120-30c8.269531 0 15 6.730469 15 15s-6.730469 15-15 15-15-6.730469-15-15 6.730469-15 15-15zm-120 30c8.269531 0 15 6.730469 15 15s-6.730469 15-15 15-15-6.730469-15-15 6.730469-15 15-15zm42.328125 182-13.027344-66.007812 18.21875 27.328124c2.964844 4.449219 8.066407 6.972657 13.414063 6.652344 5.335937-.332031 10.09375-3.480468 12.480468-8.261718l46.585938-93.171876 46.585938 93.167969c2.390624 4.785157 7.144531 7.933594 12.480468 8.265625 5.335938.324219 10.449219-2.203125 13.414063-6.652344l18.21875-27.328124-13.027344 66.007812zm0 0"/></svg>