<?xml version="1.0" standalone="no"?>
<!DOCTYPE svg PUBLIC "-//W3C//DTD SVG 20010904//EN"
 "http://www.w3.org/TR/2001/REC-SVG-20010904/DTD/svg10.dtd">
<svg version="1.0" xmlns="http://www.w3.org/2000/svg"
 width="1024.000000pt" height="1024.000000pt" viewBox="0 0 1024.000000 1024.000000"
 preserveAspectRatio="xMidYMid meet">
<metadata>
Created by potrace 1.16, written by Peter Selinger 2001-2019
</metadata>
<g transform="translate(0.000000,1024.000000) scale(0.100000,-0.100000)"
fill="#000000" stroke="none">
<path d="M6645 10160 c-3 -5 -16 -10 -28 -11 -12 0 -35 -9 -52 -20 -16 -10
-38 -22 -47 -27 -27 -12 -127 -112 -157 -157 -102 -153 -154 -340 -172 -615
-4 -69 -13 -309 -18 -535 -15 -572 -10 -518 -46 -530 -27 -10 -88 -41 -125
-65 -34 -22 -203 -120 -207 -120 -2 0 -30 -19 -61 -42 -31 -24 -86 -63 -122
-88 -78 -54 -126 -91 -189 -146 -25 -23 -71 -61 -101 -85 -120 -94 -304 -296
-412 -450 -41 -59 -107 -179 -128 -234 -4 -11 -14 -36 -22 -55 -28 -67 -41
-108 -67 -222 -23 -100 -32 -274 -21 -394 14 -154 34 -242 82 -364 56 -141 84
-190 166 -300 132 -175 263 -291 407 -361 22 -11 47 -23 55 -28 21 -12 55 -26
125 -51 108 -39 160 -51 305 -70 41 -5 97 -14 125 -19 27 -6 84 -10 127 -9 42
0 81 -3 87 -6 12 -8 16 -4518 5 -4589 -10 -58 -63 -136 -117 -174 -83 -56
-191 -73 -230 -35 -22 23 -21 29 29 140 20 43 24 69 24 147 0 83 -3 101 -31
160 -45 97 -123 170 -229 212 -152 61 -229 57 -397 -20 -56 -25 -132 -108
-166 -180 -72 -151 -74 -264 -6 -403 41 -86 164 -197 274 -248 22 -10 48 -22
57 -27 10 -5 25 -9 33 -9 9 0 27 -7 41 -16 13 -9 27 -14 30 -11 3 3 18 1 33
-5 94 -39 536 -60 557 -27 3 5 15 9 27 10 12 0 36 9 52 20 17 10 39 23 50 28
29 13 138 123 172 173 16 24 42 72 59 108 l29 65 0 2347 c0 1290 4 2350 8
2354 5 5 41 12 80 16 40 4 95 12 122 18 28 6 64 13 80 16 17 3 44 11 60 19 17
7 48 18 70 25 56 16 67 21 180 76 279 137 459 332 543 589 40 122 62 253 62
365 0 95 -29 295 -55 375 -7 22 -18 60 -25 85 -17 58 -63 152 -105 215 -34 51
-176 195 -192 195 -5 0 -18 8 -29 18 -10 10 -26 21 -34 25 -8 4 -40 21 -70 37
-30 17 -60 30 -67 30 -7 0 -21 4 -31 9 -54 26 -91 40 -122 46 -80 14 -203 26
-325 33 l-130 7 -3 210 c-3 221 4 264 46 293 52 36 93 62 97 62 3 0 34 20 69
45 36 25 68 45 71 45 9 0 224 191 316 281 111 109 246 304 299 434 7 17 16 37
20 45 9 19 34 109 51 180 17 75 17 388 0 460 -14 58 -57 202 -70 235 -50 123
-123 247 -189 320 -36 41 -132 115 -147 115 -5 0 -16 6 -24 14 -36 32 -142 56
-247 56 -58 0 -106 -4 -109 -10z m251 -185 c72 -36 120 -102 161 -222 23 -70
26 -92 26 -218 -1 -160 -20 -265 -76 -415 -25 -67 -96 -204 -108 -208 -5 -2
-9 -8 -9 -14 0 -38 -218 -271 -338 -363 -81 -62 -86 -58 -90 60 -2 55 2 199 9
320 6 121 13 263 15 315 2 52 6 109 9 125 4 17 11 71 16 120 15 155 39 278 60
317 5 10 9 24 9 31 0 25 42 102 73 135 30 32 32 32 122 32 61 0 102 -5 121
-15z m-738 -2525 c2 -202 2 -205 -20 -222 -13 -10 -30 -18 -38 -18 -25 0 -135
-106 -190 -181 -52 -72 -108 -180 -130 -254 -6 -22 -16 -54 -21 -71 -14 -49
-11 -266 5 -328 20 -75 58 -149 107 -208 46 -54 63 -58 117 -25 20 13 50 27
65 31 25 6 28 10 22 33 -3 15 -15 38 -27 52 -40 52 -48 88 -48 224 0 132 5
161 44 252 21 50 84 125 105 125 17 0 16 -1397 -1 -1403 -18 -7 -133 2 -198
14 -92 18 -166 43 -250 83 -30 14 -61 26 -68 26 -6 0 -12 4 -12 9 0 5 -8 11
-17 15 -19 6 -21 7 -118 70 -71 47 -231 205 -271 267 -94 146 -107 191 -105
364 0 77 6 165 11 195 18 90 70 261 95 310 7 14 20 41 29 60 21 45 28 56 105
170 73 105 203 243 301 316 187 140 456 305 490 301 13 -2 15 -34 18 -207z
m596 -455 c15 -8 34 -15 41 -15 7 0 24 -6 38 -13 36 -19 157 -109 157 -117 0
-4 11 -12 24 -18 40 -18 126 -140 164 -232 39 -94 44 -139 39 -318 -2 -97 -10
-195 -17 -217 -6 -22 -17 -58 -23 -80 -6 -22 -14 -44 -19 -50 -4 -5 -8 -15 -8
-23 0 -7 -20 -43 -44 -80 -46 -71 -124 -152 -191 -199 -39 -27 -179 -99 -220
-113 -11 -4 -36 -13 -55 -19 -19 -7 -42 -13 -50 -13 -8 1 -34 -4 -57 -10 -78
-20 -73 -76 -73 756 0 407 4 746 8 752 12 18 31 21 147 23 81 1 117 -3 139
-14z"/>
<path d="M2530 5058 c-19 -5 -46 -11 -60 -14 -90 -19 -223 -104 -280 -180 -46
-60 -100 -168 -100 -198 0 -12 -7 -33 -14 -48 -19 -36 -16 -302 3 -368 35
-119 79 -196 153 -267 45 -43 132 -91 207 -114 61 -18 289 -18 365 0 l58 15
-6 44 c-3 25 -6 57 -6 71 0 15 -6 36 -14 47 -13 16 -18 17 -36 6 -14 -9 -61
-13 -138 -13 -107 -1 -122 1 -173 25 -89 42 -153 121 -185 226 -17 55 -19 269
-3 319 36 113 101 203 171 235 82 37 138 49 206 42 37 -4 82 -12 100 -19 45
-16 65 -1 75 54 4 24 10 59 13 76 4 23 2 34 -7 37 -89 24 -127 30 -204 32 -49
1 -106 -3 -125 -8z"/>
<path d="M3245 4728 c-56 -9 -79 -17 -147 -49 -28 -13 -39 -51 -18 -64 6 -3
10 -20 10 -36 0 -40 18 -44 88 -20 39 14 83 21 133 21 71 0 78 -2 113 -32 29
-26 38 -42 42 -79 6 -42 4 -47 -17 -52 -13 -4 -54 -7 -91 -7 -37 0 -70 -4 -73
-10 -3 -5 -17 -10 -31 -10 -22 0 -40 -7 -84 -32 -8 -4 -24 -12 -35 -17 -23
-10 -74 -64 -97 -102 -9 -14 -22 -54 -28 -87 -21 -105 17 -198 108 -263 46
-33 50 -34 142 -34 96 0 96 0 159 43 35 23 67 42 71 42 11 0 20 -26 20 -56 0
-24 1 -24 101 -24 93 0 100 1 93 18 -5 9 -11 154 -14 322 -4 234 -9 314 -20
342 -23 56 -73 121 -106 138 -16 8 -36 19 -44 25 -18 14 -135 36 -181 34 -19
-1 -61 -6 -94 -11z m233 -498 c5 -66 -17 -148 -49 -179 -89 -90 -218 -34 -206
89 4 37 12 51 43 78 44 38 112 62 169 59 40 -2 40 -2 43 -47z"/>
<path d="M4274 4725 c-64 -20 -104 -44 -141 -83 -28 -31 -35 -34 -43 -22 -5 8
-10 32 -10 52 0 43 -3 44 -112 40 l-80 -4 6 -36 c3 -20 6 -211 6 -424 l0 -388
105 0 105 0 0 282 c0 264 1 284 21 324 46 95 139 123 201 61 50 -49 58 -108
58 -410 l0 -257 105 0 105 0 0 289 c0 279 1 291 22 331 27 50 73 80 123 80 31
0 45 -7 75 -39 33 -35 38 -46 49 -124 6 -49 11 -183 11 -309 l-2 -223 106 -3
106 -3 0 300 c0 165 -4 310 -9 323 -5 13 -17 49 -27 81 -13 45 -29 70 -68 108
-27 27 -57 49 -65 49 -8 0 -30 5 -48 12 -26 9 -46 9 -94 -1 -70 -14 -124 -45
-173 -98 l-34 -37 -58 59 c-50 51 -68 62 -114 73 -65 14 -72 14 -126 -3z"/>
<path d="M5695 4727 c-46 -14 -130 -69 -138 -92 -4 -8 -16 -15 -27 -15 -17 0
-20 6 -20 44 0 31 -5 46 -16 50 -22 8 -157 7 -169 -2 -7 -4 -8 -211 -5 -602
l5 -595 103 -3 102 -3 0 206 c0 177 2 206 16 212 9 3 26 -5 42 -19 49 -46 72
-53 172 -52 80 0 101 4 135 23 61 35 124 100 149 156 44 97 51 134 50 275 -2
149 -14 196 -74 290 -34 53 -108 112 -155 124 -52 14 -129 15 -170 3z m97
-196 c122 -106 120 -384 -3 -483 -28 -22 -46 -29 -87 -29 -114 -3 -172 87
-172 266 0 181 60 275 177 275 43 0 58 -5 85 -29z"/>
<path d="M6990 4726 c-58 -14 -85 -30 -138 -78 -23 -21 -47 -36 -52 -33 -6 3
-10 26 -10 51 l0 44 -101 0 c-92 0 -101 -2 -94 -17 4 -10 9 -200 12 -423 l5
-405 101 0 102 0 6 280 c6 334 11 355 90 396 51 25 87 24 129 -5 69 -47 80
-105 80 -426 l0 -250 106 0 106 0 -4 318 c-4 318 -6 336 -44 417 -28 60 -74
98 -154 128 -51 19 -75 20 -140 3z"/>
<path d="M7745 4728 c-56 -9 -79 -17 -147 -49 -28 -13 -38 -45 -19 -65 5 -5
11 -22 13 -39 3 -33 27 -43 62 -27 59 27 83 32 152 32 75 0 112 -13 141 -50
14 -18 28 -98 19 -107 -4 -4 -44 -10 -89 -14 -111 -10 -158 -21 -207 -50 -8
-5 -24 -13 -35 -18 -23 -10 -74 -64 -97 -101 -8 -14 -20 -53 -28 -87 -22 -105
16 -198 108 -264 46 -33 50 -34 142 -34 l96 0 64 43 c35 24 69 41 77 38 7 -3
13 -21 13 -41 l0 -35 105 0 c104 0 117 4 93 28 -10 10 -14 93 -18 315 -5 231
-9 311 -20 339 -22 55 -73 121 -106 138 -16 8 -36 19 -44 25 -18 14 -135 36
-181 34 -19 -1 -61 -6 -94 -11z m236 -460 c2 -44 -4 -142 -11 -166 -11 -39
-55 -81 -102 -98 -34 -12 -44 -11 -76 2 -49 19 -72 59 -72 122 0 60 22 92 88
127 53 27 171 36 173 13z"/>
<path d="M3345 3310 c-3 -5 -4 -14 -1 -18 2 -4 0 -62 -5 -127 -6 -66 -14 -190
-19 -275 -23 -403 -29 -490 -38 -550 -5 -36 -9 -96 -8 -135 l1 -70 90 0 89 0
8 35 c5 19 13 139 18 265 14 347 28 587 34 593 3 2 7 -1 9 -9 2 -8 10 -30 16
-49 7 -19 17 -51 21 -70 4 -19 13 -57 20 -85 16 -71 27 -112 45 -175 10 -30
21 -71 25 -90 4 -19 15 -60 25 -90 9 -30 20 -71 25 -90 5 -19 13 -51 19 -70 5
-19 15 -57 23 -85 l13 -50 84 0 84 0 23 75 c13 41 29 93 35 115 7 22 22 72 35
112 13 39 24 80 24 92 0 11 5 23 10 26 6 3 10 17 10 31 0 13 4 32 9 42 13 28
41 118 41 136 0 9 4 24 9 34 5 9 14 42 21 72 13 58 48 136 57 127 3 -3 9 -138
15 -299 5 -161 12 -362 15 -446 l5 -153 101 3 101 3 2 65 c2 36 -2 101 -7 145
-6 44 -15 166 -20 270 -19 394 -30 592 -37 645 l-7 55 -135 0 c-127 0 -135 -1
-138 -20 -3 -26 -19 -82 -47 -170 -12 -38 -28 -90 -35 -115 -7 -25 -16 -56
-20 -70 -10 -31 -38 -132 -51 -182 -18 -74 -28 -114 -43 -168 -9 -30 -17 -64
-18 -75 -2 -12 -11 -20 -23 -20 -16 0 -22 9 -27 40 -11 64 -27 138 -37 165 -5
14 -14 50 -20 80 -7 30 -23 91 -36 135 -13 44 -28 98 -34 120 -12 44 -39 136
-51 175 -4 14 -13 44 -20 68 l-13 42 -133 0 c-78 0 -135 -4 -139 -10z"/>
<path d="M5765 2991 c-51 -10 -85 -22 -85 -30 0 -4 -15 -14 -32 -24 -87 -47
-128 -187 -84 -282 28 -58 82 -104 182 -154 127 -64 161 -109 130 -170 -34
-66 -148 -76 -263 -25 -42 19 -50 18 -56 -8 -3 -13 -10 -41 -16 -63 -12 -48
-6 -75 17 -75 10 0 27 -7 40 -15 17 -12 51 -16 152 -16 119 0 135 2 183 25 58
27 137 105 137 134 0 10 5 23 11 29 19 19 6 132 -20 183 -12 25 -38 56 -57 70
-19 14 -41 31 -49 38 -7 6 -18 12 -23 12 -14 0 -71 30 -77 41 -4 5 -15 9 -26
9 -10 0 -19 4 -19 9 0 5 -8 12 -18 15 -10 3 -26 20 -36 37 -15 26 -16 35 -6
60 28 68 140 80 243 27 11 -5 20 -8 21 -6 6 11 26 79 31 110 6 34 5 37 -27 51
-38 18 -194 28 -253 18z"/>
<path d="M6920 2993 c-30 -2 -59 -8 -64 -14 -6 -5 -18 -9 -27 -9 -40 0 -148
-78 -186 -134 -39 -58 -50 -80 -58 -115 -4 -17 -11 -33 -16 -36 -16 -11 -11
-234 7 -285 24 -66 36 -91 64 -130 36 -51 56 -66 139 -106 72 -35 75 -35 202
-35 178 0 197 15 168 126 -18 70 -16 68 -41 51 -27 -19 -114 -21 -170 -4 -44
13 -112 75 -132 122 -54 126 -37 254 48 344 17 18 44 39 60 47 33 17 181 21
191 5 14 -22 33 -8 39 28 17 93 18 118 4 129 -15 12 -147 21 -228 16z"/>
<path d="M4644 2975 c-4 -9 -4 -156 -2 -328 l5 -312 28 -60 c29 -61 70 -115
89 -115 5 0 17 -7 27 -16 14 -13 40 -17 108 -17 102 0 133 11 204 73 26 23 51
39 57 35 5 -3 10 -23 10 -44 0 -55 15 -62 112 -59 l83 3 -2 35 c-2 19 -6 212
-9 428 l-6 393 -102 -3 -101 -3 -5 -290 c-5 -306 -4 -296 -52 -356 -16 -20
-71 -49 -93 -49 -40 0 -93 40 -115 87 -22 46 -23 58 -24 328 l-1 280 -103 3
c-86 2 -103 0 -108 -13z"/>
</g>
</svg>
